<svg fill="none" viewBox="0 0 32 32"><path fill="currentColor" d="M1 17.431a.9.9 0 0 1 .9-.9h1.814a.9.9 0 0 1 .9.9v8.354a.9.9 0 0 1-.9.9H1.901a.9.9 0 0 1-.901-.9v-8.354zm26.849 3.997-8.123 4.092a1.796 1.796 0 0 1-1.46.07l-4.7-1.82a.91.91 0 0 1 .656-1.695l3.97 1.537a.798.798 0 0 0 1.024-.436 2.738 2.738 0 0 0-1.49-3.598l-5.861-2.362c-1.628-.656-3.277-.79-4.845 0l-.185.104a2.477 2.477 0 0 0-1.258 2.156v4.68c0 1.036.645 1.962 1.617 2.322l6.345 2.349c1.802.726 3.743.93 5.71.592 1.048-.18 2.055-.563 3.006-1.042l8.213-4.165a.97.97 0 0 0 .532-.866c-.005-1.597-1.734-2.632-3.151-1.918z"/><path fill="currentColor" fill-rule="evenodd" d="M23.142 18.687a7.623 7.623 0 1 0 0-15.245 7.623 7.623 0 0 0 0 15.245zm1.71-6.264h-2.407c.027.784.223 1.37.588 1.758.37.388.897.581 1.582.581.496 0 .958-.074 1.387-.223l.189 1.38c-.541.13-1.1.196-1.677.196-1.154 0-2.062-.325-2.725-.974-.662-.649-1.011-1.555-1.047-2.718h-1.163v-.953h1.163v-.865h-1.163V9.65h1.17c.058-1.15.425-2.042 1.101-2.677.676-.64 1.585-.96 2.725-.96.478 0 1.016.07 1.616.21L26 7.608a4.319 4.319 0 0 0-1.372-.23c-.68 0-1.203.194-1.568.582-.365.388-.568.951-.609 1.69h2.4v.954h-2.407v.865h2.407v.953z" clip-rule="evenodd"/><path fill="currentColor" d="M15.773 15.268a8.485 8.485 0 0 1 5.642-12.51 6.902 6.902 0 0 0-5.642 12.51z"/></svg>