<svg viewBox="0 0 32 24" fill="none"><path fill-rule="evenodd" clip-rule="evenodd" d="M11.348.574h17.778c1.245 0 2.234.989 2.202 2.234v18.384a2.22 2.22 0 0 1-2.234 2.234H11.316a2.275 2.275 0 0 1-1.691-.766l-8.043-9.192a2.233 2.233 0 0 1 0-2.936L9.657 1.34c.446-.48 1.053-.766 1.691-.766zM7.327 12a2.139 2.139 0 1 0 4.277 0 2.139 2.139 0 0 0-4.277 0zm12.946 2.025h3.587v-1.42h-3.587v-1.29h3.587V9.894h-3.577c.06-1.102.362-1.942.906-2.52.545-.577 1.324-.866 2.338-.866.679 0 1.36.114 2.046.343l.282-2.066c-.894-.208-1.696-.312-2.408-.312-1.7 0-3.054.477-4.061 1.43-1.008.948-1.555 2.278-1.643 3.99H16v1.421h1.733v1.29H16v1.421h1.733c.054 1.733.575 3.084 1.562 4.05.988.968 2.341 1.452 4.06 1.452.86 0 1.694-.098 2.5-.292l-.282-2.056a6.253 6.253 0 0 1-2.066.333c-1.021 0-1.807-.29-2.358-.867-.544-.578-.836-1.451-.877-2.62z" fill="currentColor"/></svg>