<svg viewBox="0 0 29 39" fill="none"><path d="M25.574 14.4V12a.6.6 0 0 0-.6-.6h-3.6V7.8h6.56a.6.6 0 0 0 .6-.6V6a.6.6 0 0 0-.325-.534l-3.498-1.8a.6.6 0 0 0-.276-.066H9.01L6.837.27A.6.6 0 0 0 6.333 0h-1.2a.6.6 0 0 0-.6.6v3H2.685a.6.6 0 0 0-.432.18L.501 5.58A.6.6 0 0 0 .333 6v1.2a.6.6 0 0 0 .6.6h3.6v18h-1.2a.6.6 0 0 0-.6.6v3a.6.6 0 0 0 .6.6h7.2a.6.6 0 0 0 .6-.6v-3a.6.6 0 0 0-.6-.6h-1.2v-18h10.84v3.6h-3.6a.6.6 0 0 0-.6.6v2.4a.6.6 0 0 0 .6.6h8.4a.6.6 0 0 0 .6-.6zM7.887 7.8 5.733 9.954V7.8h2.154zm0 7.2-2.154 2.154v-4.308L7.887 15zM5.733 1.2h.276l1.566 2.4H5.733V1.2zm0 18.846L7.887 22.2l-2.154 2.154v-4.308zm2.4 5.754H5.98l2.154-2.154V25.8zm0-5.046L5.98 18.6l2.154-2.154v4.308zm0-7.2L5.98 11.4l2.154-2.154v4.308z" fill="currentColor"/></svg>