<svg viewBox="0 0 33 32" fill="none"><g fill="currentColor"><path d="M9.677.896H22.99v2.048H9.677V.896zm3.073 24.576h2.047v-2.048H12.75v2.048zm-5.12 0h2.047v-2.048H7.63v2.048zm0-5.12h2.047v-2.048H7.63v2.048zm0-5.12h2.047v-2.048H7.63v2.048zm10.24 0h2.047v-2.048H17.87v2.048zm7.167 0v-2.048H22.99v2.048h2.048zm-15.36 15.36H7.63v-.512H6.093v1.024h20.48V30.08h-1.536v.512H22.99v-.512h-3.072v.512H17.87v-.512h-3.072v.512H12.75v-.512H9.677v.512zm5.12-20.48h3.072V8.064h-3.072v2.048zm-2.047-5.12h2.047V2.944H12.75v2.048z"/><path d="M17.87 28.544h-3.073v1.536h3.072v-1.536z"/><path d="M14.797 28.544H12.75v1.536h2.048v-1.536zm-5.12 0H7.63v1.536h2.048v-1.536zm-2.047 0H6.092v1.536H7.63v-1.536zm2.047-3.072H7.63v3.072h2.048v-3.072z"/><path d="M7.63 30.592h2.047v-.512H7.63v.512z"/><path fill-rule="evenodd" clip-rule="evenodd" d="M7.63 2.944h5.119v2.048H9.677v3.072h3.072V4.992h2.048v8.192h3.072v2.048h-3.072v3.072h3.072v-3.072h2.048v3.072h3.072v-3.072h2.048v13.312h1.536v1.536h-1.536v.512H22.99v-.512h-3.072v.512H17.87v-5.12h-3.072v-2.048h3.072v-3.072h-3.072v3.072H12.75v-3.072H9.677v-2.048h3.072v-3.072H9.677v-2.048h3.072v-3.072H9.677v3.072H7.63V2.944zm2.047 12.288v3.072H7.63v-3.072h2.048zm0 8.192H7.63v-3.072h2.048v3.072zm3.072 2.048v3.072h2.048v-3.072H12.75zm0 0H9.677v-2.048h3.072v2.048zm10.24-12.288h2.048V2.944h-10.24v2.048h3.072v8.192h2.048v2.048h3.072v-2.048zm0 0h-3.072v-3.072h3.072v3.072zM14.797 30.08H12.75v.512h2.048v-.512zm5.12-24.064V4.992h3.072v3.072h-3.072V6.016zm0 22.528h3.072v-3.072h-3.072v3.072zm0-8.192h3.072v3.072h-3.072v-3.072z"/><path d="M.973 31.104h5.12V30.08H.973v1.024zm30.72 0V30.08h-5.12v1.024h5.12zm-18.943-2.56H9.676v1.536h3.072v-1.536z"/></g></svg>