<svg viewBox="0 0 39 35" fill="none"><path d="M4.121.367C1.953.367.167 2.153.167 4.32v17.576c0 2.168 1.786 3.955 3.954 3.955h2.5l-.756 7.332a1.318 1.318 0 0 0 2.238 1.07l8.431-8.402h3.405v.906c0 1.672 1.393 3.048 3.062 3.048h6.426l4.532 4.449a1.318 1.318 0 0 0 2.224-1.167l-.577-3.282h.165c1.67 0 3.062-1.376 3.062-3.048v-8.404c0-1.672-1.393-3.048-3.062-3.048h-2.21V4.321c0-2.168-1.787-3.954-3.955-3.954H4.121zm0 2.636h25.485c.753 0 1.318.565 1.318 1.318v17.576c0 .753-.565 1.318-1.318 1.318H15.985a1.316 1.316 0 0 0-.934.385l-6.193 6.165.522-5.108a1.318 1.318 0 0 0-1.304-1.442H4.12a1.287 1.287 0 0 1-1.318-1.318V4.321c0-.753.565-1.318 1.318-1.318zm3.955 7.91a2.197 2.197 0 1 0 0 4.393 2.197 2.197 0 0 0 0-4.394zm8.801 0a2.197 2.197 0 1 0 0 4.393 2.197 2.197 0 0 0 0-4.394zm8.774 0a2.197 2.197 0 1 0 0 4.393 2.197 2.197 0 0 0 0-4.394zm7.91 7.03h2.21c.261 0 .426.17.426.411v8.404c0 .241-.165.412-.426.412h-1.743a1.317 1.317 0 0 0-1.305 1.538l.137.782-1.977-1.95a1.318 1.318 0 0 0-.92-.37h-6.962c-.26 0-.425-.17-.425-.412v-.906h7.03c2.168 0 3.955-1.787 3.955-3.955v-3.955z" fill="currentColor"/></svg>