<svg viewBox="0 0 28 32" fill="none"><path d="M15.893 22.727h10.142v1.352H15.893v4.733h-1.352V9.88h1.352v12.847zM5.027 27.588a.66.66 0 1 1 .934.934l-2.245 2.245a.659.659 0 0 1-.935 0L.535 28.522a.66.66 0 1 1 .934-.933l1.12 1.123V10.778l-1.12 1.123a.66.66 0 1 1-.934-.933L2.78 8.723a.659.659 0 0 1 .935 0l2.246 2.245a.66.66 0 1 1-.934.933l-1.12-1.123v17.934l1.12-1.123zm4.78-19.06h16.228c.747 0 1.353.605 1.353 1.352v18.932c0 .747-.606 1.352-1.353 1.352H9.808a1.352 1.352 0 0 1-1.352-1.352V9.88c0-.747.605-1.352 1.352-1.352zm0 1.352v18.932h16.228V9.88H9.808zm2.027-3.445a.654.654 0 0 0 0-.926L10.72 4.4h14.708l-1.113 1.11a.654.654 0 1 0 .925.925l2.224-2.225a.652.652 0 0 0 0-.926L25.24 1.061a.655.655 0 1 0-.925.925l1.113 1.11H10.721l1.112-1.11a.654.654 0 1 0-.925-.925L8.684 3.285a.652.652 0 0 0 0 .926l2.224 2.224c.256.255.67.255.926 0z" fill="currentColor"/></svg>