<svg viewBox="0 0 27 27" fill="none"><path d="m5.426 4.056 1.553-1.56a.285.285 0 0 0-.166-.484l-5.67-.671a.284.284 0 0 0-.315.316l.669 5.693a.283.283 0 0 0 .481.167l1.547-1.553 4.732 4.748c.11.11.29.11.4 0l1.5-1.504a.286.286 0 0 0 0-.401l-4.73-4.751zm12.483 6.656c.11.11.29.11.4 0l4.732-4.748 1.546 1.553a.283.283 0 0 0 .482-.167l.669-5.69a.284.284 0 0 0-.315-.316l-5.67.672a.285.285 0 0 0-.167.483l1.554 1.56-4.732 4.744a.286.286 0 0 0 0 .402l1.5 1.507zm7.16 9.637a.283.283 0 0 0-.482-.167l-1.546 1.553-4.732-4.748a.284.284 0 0 0-.4 0l-1.501 1.503a.286.286 0 0 0 0 .402l4.732 4.751-1.554 1.56a.285.285 0 0 0 .167.483l5.67.672a.284.284 0 0 0 .315-.316l-.67-5.693zM8.657 16.987a.284.284 0 0 0-.4 0l-4.732 4.748-1.547-1.553a.282.282 0 0 0-.481.167l-.669 5.69a.284.284 0 0 0 .315.316l5.67-.672a.285.285 0 0 0 .166-.483l-1.553-1.557 4.732-4.747a.286.286 0 0 0 0-.402l-1.501-1.507z" fill="currentColor"/></svg>