<svg viewBox="0 0 31 32" fill="none"><g fill="currentColor"><path d="m1.591 10.644.261.261L3.66 9.098.654 6.093c-.435 1.5-.246 3.369.937 4.551z"/><path d="M29.357 26.127 15.41 12.662a9.728 9.728 0 0 1-2.939-6.656 4.51 4.51 0 0 0-1.316-3.031l-.85-.85a4.547 4.547 0 0 0-5.754-.543l3.128 3.154a1.367 1.367 0 0 1 0 1.925l-5.023 5.002a4.372 4.372 0 0 0 3.303 1.265c.377-.02.756.02 1.12.118 1.808.512 3.616 2.299 3.616 2.299L25.118 30.29a2.972 2.972 0 0 0 4.874-3.193 2.972 2.972 0 0 0-.635-.97zM8.821 7.296a.338.338 0 0 1 .45-.056l1.101 1.1a.338.338 0 0 1-.056.451c-.154.18-.384.23-.512.118L8.703 7.808c-.113-.108-.062-.343.118-.512zm-.958.973a.338.338 0 0 1 .45-.057l1.102 1.101a.338.338 0 0 1-.057.45c-.153.18-.384.226-.512.119L7.73 8.765c-.077-.112-.046-.343.133-.496zm-.957.957a.338.338 0 0 1 .45-.056l1.101 1.1a.338.338 0 0 1-.056.451c-.154.18-.384.226-.512.118L6.773 9.723c-.098-.113-.046-.343.133-.497zm21.74 20.362a1.991 1.991 0 1 1-2.907-2.722 1.991 1.991 0 0 1 2.906 2.722z"/></g></svg>