<svg viewBox="0 0 40 32" fill="none"><path fill-rule="evenodd" clip-rule="evenodd" d="M23.263 30.955c-.544.203-1.139.266-1.707.266a5.85 5.85 0 0 1-1.486-.194L8.604 27.611v.491a1 1 0 0 1-.283.72 1 1 0 0 1-.721.284H1.438c-.273 0-.53-.092-.721-.283a1.003 1.003 0 0 1-.284-.721V15.535a1 1 0 0 1 .284-.72 1 1 0 0 1 .72-.284H7.6c.272 0 .53.093.72.283.192.191.284.45.284.721v1.05h1.594c2.76 0 5.517.905 7.74 2.477h5.43a3.115 3.115 0 0 1 3.117 3.465 3.478 3.478 0 0 1-.277.99l1.1.073 7.96-2.514c2.256-.75 4.632.959 4.632 3.401a.98.98 0 0 1-.706.927l-15.93 5.551zm-.046-7.602c.634.045 1.159-.403 1.203-1.02a1.127 1.127 0 0 0-1.112-1.262h-5.8c-.218 0-.417-.1-.521-.153l-.02-.01-.033-.017-.03-.022a11.255 11.255 0 0 0-6.767-2.275H8.544v6.914l12.03 3.598c.659.163 1.362.16 2.002-.054l15.088-5.186a1.589 1.589 0 0 0-1.91-.82l-8.215 2.616h-.318l-9.827-.727c-.492-.099-.89-.572-.89-1.062.099-.492.575-.944 1.065-.944l5.648.424zM32.715 8.39a7.986 7.986 0 1 1-15.971 0 7.986 7.986 0 0 1 15.971 0zm-9.26 1.099h2.22V8.61h-2.22v-.796h2.22v-.878H23.46c.037-.68.224-1.199.561-1.556.337-.357.82-.535 1.447-.535.42 0 .842.07 1.266.212l.175-1.276a6.65 6.65 0 0 0-1.49-.193c-1.053 0-1.89.295-2.514.884-.624.585-.963 1.406-1.017 2.464H20.81v.878h1.073v.796H20.81v.878h1.073c.033 1.07.355 1.904.967 2.502.61.597 1.449.896 2.513.896a6.57 6.57 0 0 0 1.547-.18l-.175-1.27a3.877 3.877 0 0 1-1.278.205c-.632 0-1.119-.178-1.46-.535-.337-.357-.517-.896-.542-1.618z" fill="currentColor"/></svg>