<svg viewBox="0 0 17 16" fill="none"><path d="M8.5 1a7 7 0 1 0 .001 14.001A7 7 0 0 0 8.5 1zm0 12.813a5.813 5.813 0 0 1 0-11.626 5.813 5.813 0 0 1 0 11.626zm1.84-9.197a4.048 4.048 0 0 0-.865-.085c-1.667 0-2.795.87-3.103 2.342h-.497a.125.125 0 0 0-.125.125v.425c0 .07.056.125.125.125h.412c-.004.064-.004.132-.004.2v.577h-.408a.125.125 0 0 0-.125.125v.425c0 .069.056.125.125.125h.472c.269 1.55 1.412 2.469 3.128 2.469.327 0 .616-.027.864-.08a.125.125 0 0 0 .1-.122v-.669a.124.124 0 0 0-.148-.121c-.23.043-.499.064-.81.064-1.07 0-1.789-.572-2.028-1.541h2.04a.125.125 0 0 0 .126-.125V8.45a.125.125 0 0 0-.125-.125H7.363v-.562c0-.074 0-.147.004-.216h2.124a.125.125 0 0 0 .125-.125v-.425a.125.125 0 0 0-.125-.125H7.486c.269-.89.973-1.413 1.994-1.413.31 0 .58.024.807.07a.125.125 0 0 0 .15-.123v-.668c0-.06-.04-.11-.098-.122z" fill="currentColor"/></svg>