<svg viewBox="0 0 31 32" fill="none"><path d="M.369 1.458A.822.822 0 0 1 1.187.64h6.315a.818.818 0 0 1 0 1.635H1.187a.82.82 0 0 1-.818-.817zm29.111 8.2a.819.819 0 0 0-.817.818v6.315a.817.817 0 1 0 1.635 0v-6.316a.822.822 0 0 0-.818-.817zm-16.188 9.695h5.322a3.14 3.14 0 0 1 3.14-3.056h6.388v-5.322h-6.389a8.47 8.47 0 0 0-8.46 8.378zm5.816.52h-6.31a.832.832 0 0 0-.584.24.809.809 0 0 0 .004 1.157.822.822 0 0 0 .58.239h6.31a.799.799 0 0 0 .578-.24.817.817 0 0 0-.578-1.395zM13.292 22.9a3.142 3.142 0 0 1-6.284 0v-7.925H1.686v7.93a8.461 8.461 0 0 0 16.922 0v-.875h-5.316v.87zM8.08 14.214a.805.805 0 0 0 .24-.573.824.824 0 0 0-.823-.822h-6.31a.807.807 0 0 0-.573.24.833.833 0 0 0-.24.582.813.813 0 0 0 .813.813h6.31a.833.833 0 0 0 .583-.24zm-1.072-1.916V2.796H1.686v9.502h5.322z" fill="currentColor"/></svg>