<svg viewBox="0 0 39 39" fill="none"><g fill="currentColor"><path d="M10.494 17.997a.713.713 0 0 0 .716-.716v-2.068a.713.713 0 0 0-.716-.715H8.426a.713.713 0 0 0-.715.715v2.068c0 .397.318.716.715.716h2.068zm4.771-3.46c.398 0 .716.318.716.716v2.068a.713.713 0 0 1-.716.715h-2.067a.713.713 0 0 1-.716-.715v-2.068c0-.398.318-.716.716-.716h2.067zm4.771 0c.398 0 .716.318.716.716v2.068a.713.713 0 0 1-.716.715H17.97a.713.713 0 0 1-.716-.715v-2.068c0-.398.318-.716.716-.716h2.067zm-4.771 4.653c.398 0 .716.317.716.715v2.067a.713.713 0 0 1-.716.716h-2.067a.713.713 0 0 1-.716-.716v-2.067c0-.398.318-.716.716-.716h2.067zm4.771 0c.398 0 .716.317.716.715v2.067a.713.713 0 0 1-.716.716H17.97a.713.713 0 0 1-.716-.716v-2.067c0-.398.318-.716.716-.716h2.067zm5.527.675v2.068c0 .397-.358.755-.716.715H22.78a.713.713 0 0 1-.716-.715v-2.068c0-.397.318-.715.716-.715h2.067c.398 0 .716.318.716.715zM8.426 19.15h2.068c.398 0 .716.357.716.715v2.068a.713.713 0 0 1-.716.715H8.426a.713.713 0 0 1-.715-.715v-2.068c0-.397.318-.715.715-.715zm9.543 4.651h2.067c.398 0 .716.318.716.716v2.067a.713.713 0 0 1-.716.716H17.97a.713.713 0 0 1-.716-.716v-2.067c0-.398.318-.716.716-.716zm-4.771 0h2.067c.398 0 .716.318.716.716v2.067a.713.713 0 0 1-.716.716h-2.067a.713.713 0 0 1-.716-.716v-2.067c0-.398.318-.716.716-.716zM7.512 1.695c0-.636.517-1.153 1.153-1.153h1.59c.637 0 1.153.517 1.153 1.153v3.5c0 .635-.516 1.152-1.153 1.152h-1.59a1.154 1.154 0 0 1-1.153-1.153V1.695zm14.353 0c0-.636.517-1.153 1.153-1.153h1.59c.637 0 1.154.517 1.154 1.153v3.5c0 .635-.517 1.152-1.154 1.152h-1.59a1.154 1.154 0 0 1-1.153-1.153V1.695z"/><path d="M21.984 33.026H2.582c-1.392 0-2.505-1.114-2.505-2.545V6.188a2.494 2.494 0 0 1 2.505-2.505H6.08v1.511a2.58 2.58 0 0 0 2.584 2.584h1.59a2.58 2.58 0 0 0 2.585-2.584v-1.51h7.634v1.55a2.58 2.58 0 0 0 2.584 2.584h1.59a2.58 2.58 0 0 0 2.585-2.584V3.723h3.459a2.494 2.494 0 0 1 2.505 2.505v15.148a9.656 9.656 0 0 0-2.426-.318h-.437v-9.82H2.94v18.925h18.607v.12c0 .953.16 1.868.437 2.742z"/><path fill-rule="evenodd" clip-rule="evenodd" d="M30.771 37.836a7.55 7.55 0 0 0 7.554-7.554c0-4.175-3.38-7.594-7.554-7.554a7.55 7.55 0 0 0-7.554 7.554 7.55 7.55 0 0 0 7.554 7.554zm1-13.14h-1.674v6.747h4.94V29.77H31.77v-5.074z"/></g></svg>