<svg fill="none" viewBox="0 0 32 32"><path fill="currentColor" fill-rule="evenodd" d="M20.898 11.054a.89.89 0 0 1 .841-.6h8.371a.89.89 0 0 1 .68 1.465L16.678 28.583a.89.89 0 0 1-1.52-.865l5.74-16.664zm1.476 1.18-3.99 11.581 9.808-11.582h-5.818zM7.879 3.114a.89.89 0 0 1 .69.587l2.532 7.352a.89.89 0 0 1-.84 1.18H1.889a.89.89 0 0 1-.696-1.443l5.839-7.352a.89.89 0 0 1 .847-.324zm-4.147 7.34h5.281l-1.597-4.64-3.684 4.64z" clip-rule="evenodd"/><path fill="currentColor" fill-rule="evenodd" d="M24.121 3.115a.89.89 0 0 1 .847.324l5.839 7.352a.89.89 0 0 1-.696 1.442H21.74a.89.89 0 0 1-.841-1.179l2.532-7.352a.89.89 0 0 1 .69-.587zm.463 2.7-1.597 4.64h5.281l-3.684-4.64z" clip-rule="evenodd"/><path fill="currentColor" fill-rule="evenodd" d="M16 3.103a.89.89 0 0 1 .701.342l5.74 7.351a.89.89 0 0 1-.701 1.437H10.26a.89.89 0 0 1-.7-1.437l5.739-7.351A.89.89 0 0 1 16 3.103zm-3.917 7.351h7.834L16 5.437l-3.917 5.017z" clip-rule="evenodd"/><path fill="currentColor" fill-rule="evenodd" d="M7.004 3.476a.89.89 0 0 1 .724-.373H16a.89.89 0 0 1 .701 1.436l-5.74 7.352a.89.89 0 0 1-1.541-.258L6.887 4.282a.89.89 0 0 1 .117-.806zM8.975 4.88l1.593 4.624 3.61-4.624H8.974z" clip-rule="evenodd"/><path fill="currentColor" fill-rule="evenodd" d="M15.2 3.602a.89.89 0 0 1 .8-.5h8.272a.89.89 0 0 1 .84 1.18l-2.531 7.352a.89.89 0 0 1-1.543.257l-5.74-7.352a.89.89 0 0 1-.097-.937zm2.623 1.28 3.61 4.623 1.592-4.624h-5.202z" clip-rule="evenodd"/><path fill="currentColor" fill-rule="evenodd" d="M9.536 10.827a.89.89 0 0 1 .725-.373H21.74a.89.89 0 0 1 .84 1.18l-5.739 16.664a.89.89 0 0 1-1.682 0l-5.74-16.664a.89.89 0 0 1 .117-.807zm1.972 1.406L16 25.276l4.492-13.043h-8.984z" clip-rule="evenodd"/><path fill="currentColor" fill-rule="evenodd" d="M1.083 10.97a.89.89 0 0 1 .806-.516h8.372c.38 0 .717.241.84.6l5.74 16.664a.89.89 0 0 1-1.52.865L1.211 11.919a.89.89 0 0 1-.128-.95zm2.725 1.263 9.807 11.582-3.989-11.582H3.808z" clip-rule="evenodd"/></svg>