<svg viewBox="0 0 30 30" fill="none"><path d="M16.25 30H7.5c-3.205-4.354-6.25-12.227-6.25-20H22.5c0 7.709-3.125 15.781-6.25 20zm7.61-17.5a56.05 56.05 0 0 1-.24 2.5h2.134c-.402 2.044-1.829 4.164-3.445 5.846-.448 1.604-.965 3.049-1.442 4.037 3.942-1.817 7.484-7.987 7.883-12.383h-4.89zM13.248 8.749c1.9-.44 3.193-1.595 3.082-2.999-.146-1.856-3.917-3.397-2.9-5.75-5.919 4.771 2.205 4.878-.182 8.749zm-4.01.001c1.905-.363 2.29-1.334 2.29-1.916 0-1.306-2.848-2.503-1.91-4.744-4.56 3.867 1.245 3.86-.38 6.66z" fill="currentColor"/></svg>