<svg viewBox="0 0 43 54" fill="none"><path d="m6.785 52.788 2.144-1.277c-4.778-1.74-7.846-4.448-7.846-7.489 0-5.25 9.115-9.5 20.393-9.506 11.287-.007 20.44 4.252 20.44 9.506 0 4.105-5.59 7.602-13.42 8.934-.205.033-.433-.016-.502-.111l-.947-1.284c-.033-.045-.027-.094.016-.136a.419.419 0 0 1 .217-.093c.243-.04.486-.086.724-.133 1.993-.392 3.782-.953 5.318-1.669 1.527-.71 2.745-1.55 3.588-2.474.87-.958 1.312-1.979 1.312-3.03 0-1.052-.442-2.07-1.312-3.028-.84-.926-2.058-1.766-3.588-2.475-1.523-.711-3.33-1.278-5.318-1.668a33.824 33.824 0 0 0-6.509-.611c-2.26 0-4.448.206-6.509.61-1.993.392-3.782.954-5.318 1.67-1.536.715-2.742 1.548-3.587 2.474-.87.957-1.313 1.978-1.313 3.029 0 1.053.442 2.071 1.313 3.029.839.925 2.057 1.766 3.587 2.474.481.224.992.435 1.526.63l2.285-1.363a.51.51 0 0 1 .174-.06.823.823 0 0 1 .215-.007.617.617 0 0 1 .19.048c.052.023.09.054.107.087l2.09 3.975c.058.113-.127.224-.374.224l-8.794.018c-.321-.002-.5-.176-.302-.294z" fill="currentColor"/><path d="M26.913 15.242H16.087a4.175 4.175 0 0 0-4.168 4.177v9.553c0 2.017 1.629 3.697 3.688 3.697v9.505a3.868 3.868 0 0 0 3.88 3.889h4.025a3.868 3.868 0 0 0 3.88-3.889V32.67c2.012 0 3.69-1.68 3.69-3.697v-9.601c-.049-2.304-1.917-4.129-4.169-4.129zM21.5 13.37c3.572 0 6.467-2.901 6.467-6.48 0-3.58-2.895-6.482-6.467-6.482-3.572 0-6.467 2.902-6.467 6.481 0 3.58 2.895 6.481 6.467 6.481z" fill="currentColor"/></svg>