<svg viewBox="0 0 33 30" fill="none"><path d="m31.31 25.477-5.304-5.756a1.862 1.862 0 0 0-1.326-.582h-4.818a.87.87 0 0 0-.873.873.87.87 0 0 0 .873.873h4.883l5.303 5.821c0 .032-.032.032-.032.032H2.886l-.033-.064 5.335-5.789h4.819a.87.87 0 0 0 .873-.873.87.87 0 0 0-.873-.873H8.188c-.517 0-1.002.227-1.325.582l-5.304 5.756c-.517.55-.614 1.358-.258 2.07.323.614 1.002.97 1.681.97h26.904c.68 0 1.359-.356 1.682-.97.388-.68.259-1.488-.259-2.07z" fill="currentColor"/><path d="M11.972 10.344a2.978 2.978 0 0 0-.582 1.746 3.036 3.036 0 0 0 3.04 3.04c.29 0 .582-.065.84-.13v7.502a1.16 1.16 0 0 0 1.164 1.164 1.16 1.16 0 0 0 1.164-1.164v-7.47c.26.065.55.13.841.13a3.036 3.036 0 0 0 3.04-3.04c0-.647-.226-1.261-.582-1.746.614-.614 1.002-1.423 1.002-2.36 0-1.262-.711-2.329-1.746-2.879-.065-2.037-1.714-3.654-3.719-3.654S12.78 3.1 12.716 5.105c-1.035.55-1.747 1.65-1.747 2.878 0 .938.388 1.746 1.003 2.36z" fill="currentColor"/></svg>