<svg viewBox="0 0 30 30" fill="none"><path fill-rule="evenodd" clip-rule="evenodd" d="M25.625 21.254A4.377 4.377 0 0 1 30 25.629a4.377 4.377 0 0 1-4.375 4.375 4.377 4.377 0 0 1-4.375-4.375 4.377 4.377 0 0 1 4.375-4.375zM16.25 30h-2.5v-5.104a7.43 7.43 0 0 1-2.848-1.146A6.24 6.24 0 0 1 7.5 25.707V30H5v-4.293a6.255 6.255 0 0 1-5-6.123c0-1.628.023-1.279 5.287-13.943.017 0 .233-.641.963-.641.726 0 .946.639.964.639.917 2.204 1.676 4 2.305 5.484.938-2.254 2.312-5.508 4.326-10.354C13.865.769 14.124 0 15 0c.871 0 1.136.765 1.156.765C21.976 14.731 22.5 15.199 22.5 17.5c0 3.712-2.705 6.8-6.25 7.396V30zm9.375-6.559a2.188 2.188 0 0 1 0 4.375 2.188 2.188 0 0 1 0-4.375zM6.25 23.41c-.709 0-3.75-.527-3.75-3.826 0-.773 0-.802 2.536-6.855l1.218-2.91 1.53 3.613.407.96c-.684 1.785-.691 2.18-.691 3.108 0 1.742.613 3.335 1.611 4.608C8.16 23.17 6.724 23.41 6.25 23.41zm9.585-.98c-.766.13-1.043.105-1.67 0A4.98 4.98 0 0 1 10 17.5c0-1.041 0-1.061 3.075-8.401.546-1.304 1.185-2.825 1.929-4.61.915 2.181 1.671 3.962 2.295 5.431C19.874 15.985 20 16.339 20 17.5a4.982 4.982 0 0 1-4.165 4.93z" fill="currentColor"/></svg>