<svg style="margin-left:10px;width:80px;height:auto" class="linear-o-icon linear-u-align-bottom" viewBox="0 0 86 21"><path d="M78 5.5a7 7 0 0 0 .5 14c1.5 0 3.4-.8 4.3-2.3v2h2.7v-6.6A6.8 6.8 0 0 0 78 5.5zm4.6 7.1a4 4 0 0 1-4.5 3.8 4.1 4.1 0 0 1-3.5-3.5 4 4 0 0 1 4-4.5 4 4 0 0 1 4 3.8v.4zM63.2 5.5a6.9 6.9 0 0 0-6.8 7c0 3.8 3 7 7 7a7 7 0 0 0 6.5-4.3l-2.6-.8a4.3 4.3 0 0 1-3 2.3c-2 .4-3.7-.8-4.4-2l10.5-3a7 7 0 0 0-7.2-6.2zM59.4 12c0-1.4.8-3.1 2.7-3.8 2.1-.8 4 .3 4.8 1.8l-7.5 2zM40.3 8.3V5.4c-2.7 0-3.5 1.3-4 2V6h-3v13.3h3v-6.6c0-3 1.8-4.2 4-4.3zM12.6 14 3.5 3H.4v16.1h3.2V8.4L13 19.3h2.8V3h-3v11z"/><path d="M54.6 1.7h-2.9v5.2c-.7-.8-2.8-1.6-4.6-1.4a7 7 0 0 0 .5 14c1.5 0 3.6-.7 4.2-2v1.7h2.7v-6.8l.1-10.7zm-3 11a4 4 0 0 1-4.5 3.7 4.1 4.1 0 0 1-3.5-3.5 4 4 0 0 1 4-4.5 4 4 0 0 1 4 3.8v.4zm-27-7.3a7 7 0 1 0 0 14 7 7 0 0 0 0-14zm0 11c-2.3 0-4-1.8-4-4s1.7-4 4-4 4 1.9 4 4a4 4 0 0 1-4 4z"/></svg>